<svg width="24" height="24" viewBox="0 0 24 24" fill="none" xmlns="http://www.w3.org/2000/svg">
<path d="M4.42232 3C4.04551 3 3.68413 3.14969 3.41768 3.41614C3.15123 3.68259 3.00154 4.04397 3.00154 4.42078C3.00154 4.7976 3.15123 5.15898 3.41768 5.42543C3.68413 5.69188 4.04551 5.84157 4.42232 5.84157L15.5612 5.84157C15.6081 5.84167 15.6538 5.85565 15.6927 5.88173C15.7315 5.90782 15.7618 5.94484 15.7797 5.98812C15.7975 6.03141 15.8021 6.07901 15.7929 6.12491C15.7837 6.17081 15.7611 6.21295 15.728 6.24601L3.41546 18.5718C3.14918 18.8384 2.99973 19.1999 3 19.5768C3.00027 19.9536 3.15022 20.3149 3.41688 20.5812C3.68354 20.8475 4.04506 20.997 4.42191 20.9967C4.79875 20.9964 5.16006 20.8465 5.42634 20.5798L17.754 8.2389C17.7871 8.2057 17.8293 8.18308 17.8753 8.1739C17.9213 8.16473 17.969 8.16942 18.0123 8.18738C18.0556 8.20534 18.0926 8.23575 18.1187 8.27477C18.1447 8.31379 18.1585 8.35965 18.1584 8.40655L18.1584 19.5758C18.1584 19.9526 18.3081 20.314 18.5746 20.5804C18.841 20.8469 19.2024 20.9966 19.5792 20.9966C19.956 20.9966 20.3174 20.8469 20.5839 20.5804C20.8503 20.314 21 19.9526 21 19.5758L21 5.36797C21 5.05685 20.9387 4.74877 20.8196 4.46135C20.7004 4.17393 20.5259 3.91281 20.3058 3.6929C20.0857 3.47298 19.8244 3.2986 19.5369 3.17971C19.2494 3.06082 18.9413 2.99976 18.6301 3L4.42232 3Z" fill="#6C6C6C"/>
</svg>
