<svg width="112" height="63" viewBox="0 0 112 63" fill="none" xmlns="http://www.w3.org/2000/svg"><path d="M7.433 18.15c.223.057.41.116.598.174.112.028.223.057.328.05.14-.007.232-.082.317-.191.05-.108.072-.178.052-.282-.026-.137-.116-.236-.212-.37-.393-.394-.808-.718-1.308-.932-.153-.06-.3-.087-.44-.079-.279.016-.49.203-.606.522-.053.281-.028.592-.046.872.011.798.064 1.63.075 2.428.103 2.393.276 4.781.694 7.156.111.584.188 1.17.3 1.755.36 1.89.826 3.776 1.396 5.654.168.512.343 1.058.511 1.57.061.135.081.238.1.342.047.24-.052.28-.416.406-.393.162-.758.287-1.081.445-.393.162-.745.356-1.007.65-.205.22-.34.436-.281.745a.476.476 0 0 0 .074.205c.142.374.483.493.887.574.216.022.432.045.642.032a5.13 5.13 0 0 0 .72-.11c.378-.057.715-.146 1.086-.237.035-.003.063-.039.098-.04.175-.011.264.088.332.258.048.067.068.17.08.239 1.133 2.784 2.363 5.529 3.824 8.19a27.226 27.226 0 0 0 1.835 2.953c.186.232.378.5.614.625a.752.752 0 0 0 .37.082c.209-.012.392-.161.381-.404.01-.14-.01-.243-.037-.38-.175-.546-.314-1.094-.49-1.64-.66-1.978-1.214-3.962-1.77-5.946-.253-.959-.43-1.887-.684-2.846-.12-.444-.198-.857-.284-1.304l-.243-1.272c-.03-.346.055-.455.363-.508.098-.04.168-.044.273-.05.07-.004.175-.01.251.02.922.016 1.802 0 2.73.05 2.826.184 5.656.577 8.463 1.214 2.026.438 4.031.948 5.99 1.773.918.364 1.813.799 2.552 1.52a.508.508 0 0 0 .207.163c.083.064.153.06.223.056.07-.004.14-.008.168-.044.092-.075.142-.182.122-.285-.006-.035-.054-.102-.061-.136-.068-.17-.192-.267-.323-.398-.78-.755-1.717-1.222-2.641-1.62-1.778-.8-3.615-1.355-5.467-1.804a71.935 71.935 0 0 0-9.73-1.557c-.32-.016-.6 0-.905-.121.028-.037.028-.037.021-.07l-.006-.035c.085-.11.212-.186.303-.261 1.848-1.428 3.522-3.02 4.948-4.806a24.847 24.847 0 0 0 3.585-5.838c1.078-2.496 1.809-5.145 1.426-8.077l-.085-.447c-.216-1.135-.63-2.189-1.442-3.115-.874-1.061-2.031-1.76-3.364-1.89-.286-.019-.572-.037-.886-.019a5.97 5.97 0 0 0-2.025.5c-1.552.75-2.629 1.96-3.484 3.4-.963 1.62-1.544 3.391-1.93 5.256-.903 4.154-.9 8.429-.493 12.785.075.76.184 1.519.258 2.28.038.38.003.381-.375.438-.511.1-.994.162-1.505.261l-.21.012c-.314.018-.362-.048-.51-.457a61.302 61.302 0 0 1-1.887-7.295c-.131-.687-.256-1.34-.345-1.996a59.97 59.97 0 0 1-.626-7.54c-.003-.383-.088-.83.008-1.253ZM25 16.716c.345 1.996.13 3.642-.303 5.266-.587 2.294-1.639 4.37-2.933 6.288-1.887 2.89-4.284 5.323-7.116 7.329-.253.154-.535.344-.788.498-.064.038-.099.04-.134.042-.104.006-.153-.06-.172-.164l-.118-.619c-.243-2.384-.445-4.736-.401-7.102.056-2.854.328-5.685 1.081-8.405.489-1.697 1.137-3.299 2.21-4.716.623-.801 1.35-1.434 2.292-1.871a4.512 4.512 0 0 1 1.653-.409 4.75 4.75 0 0 1 1.93.306c.953.362 1.636.982 2.115 1.824.37.639.599 1.286.684 1.733Zm-9.397 31.48c-.597-.904-1.095-1.848-1.565-2.829a64.347 64.347 0 0 1-2.567-5.865l-.135-.34c-.04-.206.094-.248.417-.406.386-.196.738-.39 1.13-.552.1-.04.169-.045.204-.047.14-.008.153.06.199.302.072.378.116.792.188 1.17.262 1.376.623 2.71.955 4.082.271 1.235.605 2.433.946 3.664.053.275.14.548.228.821Zm9.95-16.704c.204 1.065.495 1.848.953 2.586.164.303.398.603.695.864.463.39.957.57 1.411.544.49-.029.933-.298 1.225-.801.135-.217.264-.468.323-.714.253-.71.36-1.446.397-2.178-.017-.277.096-.423.363-.508.497-.168.967-.3 1.465-.467.168-.045.336-.09.463-.166.091-.075.19-.115.163-.253l-.006-.034a.31.31 0 0 0-.278-.158l-.07.004c-.336.09-.678.144-1.05.235-.266.085-.498.168-.77.218l-.07.004a.3.3 0 0 1-.332-.259c-.033-.171-.101-.341-.134-.513a3.08 3.08 0 0 0-.474-1.19c-.5-.77-1.215-1.18-1.913-1.14a1.91 1.91 0 0 0-1.088.41c-.155.114-.338.264-.493.377-.45.234-.692.63-.782 1.088-.1.77-.096 1.535.003 2.05Zm4.298-1.362.08.413c.01.242-.069.386-.3.47-.47.13-.939.262-1.422.325a1.71 1.71 0 0 1-.578-.071c-.48-.111-.833-.473-.905-.851-.046-.241.02-.454.12-.668a.33.33 0 0 1 .225-.117l.28-.016c.174-.01.308-.053.38-.23a.59.59 0 0 0 .024-.246c-.027-.137-.123-.27-.254-.402-.096-.133-.144-.2-.157-.269-.02-.103.078-.144.24-.223a.998.998 0 0 1 .435-.129c.454-.026.926.224 1.262.692.323.398.479.841.57 1.322Zm-.46 1.66.533-.17c-.055 1.012-.212 1.855-.703 2.614-.17.218-.325.331-.5.341-.21.013-.445-.113-.666-.343-.544-.63-.92-1.303-1.064-2.059l-.033-.172c-.026-.137-.004-.208.1-.214a.295.295 0 0 1 .147.026c.389.186.786.232 1.17.21.35-.02.686-.109 1.016-.232Zm1.68-19.562.105-.006c.035-.002.076.03.111.028a.69.69 0 0 0 .328.05c.21-.011.323-.157.299-.469l-.033-.171a1.52 1.52 0 0 0-.396-.777c-.255-.228-.526-.352-.77-.338a.722.722 0 0 0-.549.275c-.177.184-.27.433-.294.678-.068.386-.136.772-.168 1.157-.21 2.793-.027 5.598.44 8.42.057.484.15.966.241 1.447a44.08 44.08 0 0 0 1.003 4.148c.549 1.95 1.139 3.931 1.862 5.87.346.884.754 1.73 1.233 2.57.225.44.39.57.635.555l.07-.004c.28-.016.338-.263.281-.746a4.156 4.156 0 0 1-.054-.658c-.062-1.247.1-2.439.337-3.6.195-1.019.465-2.008.965-2.906.057-.072.107-.18.157-.287.057-.073.092-.075.127-.077.07-.004.146.027.201.128l.052.275.4 1.54c.25.751.534 1.5 1.014 2.167.44.635.953.918 1.581.882.175-.01.35-.02.546-.102 1.374-.392 2.555-1.051 3.496-2.044l.227-.292c.057-.072.079-.143.066-.212-.013-.069-.055-.101-.103-.168a.225.225 0 0 0-.194-.093.332.332 0 0 0-.225.117 2.439 2.439 0 0 0-.367.3c-.749.704-1.648 1.173-2.644 1.509a2.268 2.268 0 0 1-.61.14c-.559.032-.834-.3-1.124-1.083a16.916 16.916 0 0 1-.678-2.255c-.14-.548-.251-1.132-.566-1.67-.26-.437-.62-.66-1.005-.637-.244.014-.47.131-.674.352-.206.22-.334.471-.463.722-.568 1.284-.934 2.696-1.12 4.131-.083.492-.13.981-.2 1.541-.068-.17-.123-.27-.177-.372-.885-2.416-1.672-4.873-2.255-7.377a74.436 74.436 0 0 1-.595-2.746 33.479 33.479 0 0 1-.47-3.206c-.226-2.107-.305-4.188-.133-6.249.002-.174-.03-.346.09-.457Zm12.386 15.655c.383 1.264.66 2.534 1.246 3.751.231.473.485.876.843 1.272.483.494.99.742 1.514.712.28-.016.546-.101.834-.257 1.415-.916 2.686-2.032 3.611-3.476.057-.073.107-.18.157-.288a.287.287 0 0 0 .002-.174c-.006-.034-.054-.1-.137-.165a.309.309 0 0 0-.153-.061c-.07.004-.098.04-.162.079-.12.111-.233.257-.318.366-.839 1.16-1.904 2.057-3.1 2.821-.22.152-.416.233-.59.243-.315.018-.564-.176-.859-.611-.474-.633-.751-1.347-.994-2.063-.133-.513-.378-1.055-.476-1.571a2.784 2.784 0 0 1-.04-.762l-.02-.104a1.061 1.061 0 0 0-.273-.505.735.735 0 0 0-.611-.243l-.14.008c-.273.05-.408.267-.39.544a2.19 2.19 0 0 0 .056.483Zm-.186-3.57-.07.004c-.42.024-.703.388-.618.835.105.55.594 1.078 1.014 1.054.454-.026.816-.534.724-1.015-.091-.482-.561-.906-1.05-.878Zm6.52-.656.145.757c.125.653.321 1.684.581 2.677.346 1.44.755 2.842 1.275 4.272.472 1.363 1.048 2.72 1.857 3.994.452.703 1.002 1.367 1.736 1.88.492.354.944.502 1.398.476.454-.027.84-.223 1.194-.59.383-.405.653-.838.835-1.37.109-.354.253-.71.32-1.096a32.722 32.722 0 0 1 1.875-5.357c.085-.11.1-.215.144-.356l-.013-.07a.306.306 0 0 0-.103-.167.31.31 0 0 0-.153-.06c-.07.003-.098.04-.126.076-.114.146-.186.324-.3.47a31.08 31.08 0 0 0-1.89 4.906c-.152.495-.277.954-.506 1.42-.166.426-.415.788-.788 1.053-.19.115-.352.194-.526.204-.28.016-.55-.107-.841-.333-.387-.36-.682-.795-.977-1.23-.856-1.34-1.48-2.764-2.007-4.229a40.354 40.354 0 0 1-1.019-3.486c-.273-1.062-.553-2.158-.756-3.224l-.131-.687c-.151-.791-.26-1.55-.377-2.342-.198-1.414-.398-2.828-.492-4.247-.05-.45-.022-.486.385-.579.497-.168 1.043-.269 1.583-.404 2.122-.54 4.236-.94 6.46-1.139a60.253 60.253 0 0 1 2.467-.212 33.178 33.178 0 0 1 4.134.004c.789.058 1.612.115 2.42.277a2.7 2.7 0 0 1 .723.27c.16.096.255.23.282.367.02.103-.024.244-.18.358-.24.222-.54.309-.836.43a2.402 2.402 0 0 0-.532.17c-.099.04-.162.08-.142.182l.013.069c.013.069.096.133.2.127l.07-.004c.61-.14 1.184-.277 1.671-.687a.731.731 0 0 0 .253-.71 1.055 1.055 0 0 0-.314-.538 2.19 2.19 0 0 0-.756-.443c-.376-.117-.773-.164-1.136-.212-2.216-.324-4.437-.3-6.617-.243l-1.153.067c-1.153.067-2.3.168-3.474.306-.623.07-1.274.178-1.89.283a47.658 47.658 0 0 0-3.205.602c-.07.005-.168.045-.203.047-.245.014-.334-.085-.38-.326l-.02-.103c-.066-.9-.068-1.838-.134-2.738.002-.174.094-.249.262-.293.343-.055.422-.199.356-.542l-.02-.104c-.072-.378-.299-.643-.624-.867a.935.935 0 0 0-.64-.206c-.28.016-.492.202-.566.554a3.663 3.663 0 0 0-.046.872c.062 1.247.117 2.46.172 3.674.024.312-.048.49-.356.542a.946.946 0 0 1-.302.087c-3.328.888-6.463 2.043-9.45 3.606-.802.429-1.569.856-2.274 1.418-.212.186-.388.37-.44.651a.949.949 0 0 0-.012.314c.053.275.225.438.461.564.077.03.188.058.328.05.42-.024.939-.263.95-.576.032-.384.222-.5.482-.619.444-.269.915-.574 1.4-.81 2.67-1.372 5.54-2.442 8.47-3.376.33-.124.527-.205.667-.213.14-.008.194.093.24.334.02.103.059.31.07.552.214 1.865.422 3.695.829 5.826Z" fill="#000"/><path d="m7.433 18.15.138-.95-.935-.238-.197.864.994.324Zm.598.174-.196.934.029.009.03.007.137-.95Zm.645-.142.838.654.057-.073.04-.084-.935-.496Zm-.16-.65.81-.492-.056-.076-.068-.068-.686.635Zm-1.308-.933.308-.892-.015-.007-.014-.005-.28.904Zm-1.046.443-.964-.427-.024.066-.013.07 1 .291Zm-.046.872-1.014-.183-.002.036v.035l1.016.112Zm.075 2.428-1.016-.11v.013l.001.014 1.015.084Zm.694 7.156-1.001.043.001.007.001.007.999-.057Zm1.696 7.41-.972.163.003.012.004.012.965-.188Zm.511 1.569-.965.187.018.054.024.053.923-.294Zm-.316.748-.444-.932-.025.008-.025.01.494.914Zm-1.081.445.493.914.026-.011.026-.012-.545-.891Zm-1.007.65.792.707.006-.006.006-.006-.804-.696Zm-.207.95.949-.233-.052-.136-.088-.122-.809.49Zm.887.574-.082.963.051.01.051.005-.02-.978Zm1.362-.079-.277-.973-.025.004-.024.005.326.964Zm1.086-.236-.188-.983-.09.005-.085.021.363.956Zm.43.218-.942.25.05.127.083.114.81-.491Zm.08.239-.997.057.019.101.04.098.939-.256Zm3.824 8.19.888-.366-.004-.006-.884.372Zm1.835 2.953-.809.49.017.024.019.023.774-.537Zm.614.625.398-.85-.398.85Zm.752-.322-1.014-.182-.004.05.003.05 1.015.082Zm-.038-.38.999-.058-.012-.061-.02-.06-.967.179Zm-.49-1.64.968-.18-.004-.012-.963.192Zm-1.77-5.946-.982.128.002.007.002.007.979-.142Zm-.684-2.846.983-.127-.002-.006-.98.133Zm-.527-2.576-1.011-.04.004.049.01.049.997-.058Zm.363-.508.296.97.103-.017.094-.039-.493-.914Zm.524-.03-.279.904.192.076.197.004-.11-.984Zm2.73.05-.06-.981h-.012l.072.981Zm8.463 1.214-.11.957.01.002.1-.96Zm5.99 1.773-.301.895.011.005.012.005.278-.905Zm2.552 1.52.809-.49-.06-.083-.074-.073-.675.647Zm.207.163.573-.736-.136-.106-.158-.063-.279.905Zm.39.012-.709-.785-.072.058-.056.073.838.654Zm.062-.42.998-.059-.018-.097-.038-.094-.942.25Zm-.323-.4.686-.635-.008-.008-.008-.007-.67.65Zm-2.641-1.62-.328.884.009.004.008.004.311-.891Zm-5.467-1.803.126-.953-.009-.002-.117.955Zm-9.73-1.557-.03-.98-.023-.001-.022-.002.076.983Zm-.905-.121-.839-.654-.795 1.02 1.355.538.279-.904Zm.015-.105-.839-.654-.237.305.078.407.998-.058Zm.303-.261-.692-.8-.009.008-.008.007.71.785Zm4.948-4.806-.827-.668-.006.007.833.661Zm3.585-5.838.943.477.002-.003-.945-.474Zm1.426-8.077h1.008l-.004-.03-.005-.028-.999.058Zm-1.527-3.562-.763.551.012.015.012.014.739-.58Zm-3.364-1.89-.025-.98-.018-.001-.019-.002.062.982Zm-2.91.48-.507-.907-.018.007-.017.009.541.892Zm-3.485 3.4-.897-.568.897.569Zm-1.93 5.257.996.316.001-.008-.997-.308ZM12.625 33.7l-1.011-.036v.005l1.011.031Zm.258 2.28-1.01-.032 1.01.031Zm-.375.438-.277-.973-.02.003-.02.004.317.966Zm-1.505.261.188.982.066-.004.064-.012-.318-.966Zm-.72-.445-.967.181.006.019.007.019.953-.219Zm-2.232-9.29 1.007-.007-.002-.011-1.005.017Zm-.626-7.542-1.016-.119v.015l1.016.104ZM25 16.716l1-.041v-.008l-.002-.009-.998.058Zm-.303 5.266-.986-.355-.002.008.988.347Zm-2.933 6.288-.872-.609-.007.01.878.599Zm-7.116 7.329.614.853.026-.016.024-.017-.664-.82Zm-.788.498.614.852-.614-.852Zm-.424-.74-1.011-.028.004.042.008.043.999-.058Zm-.401-7.103-1.016-.143v.001l1.016.142Zm1.081-8.405-.981-.372-.003.008.984.364Zm2.21-4.716-.84-.654-.007.01.846.644Zm2.292-1.871-.526-.9-.003.002.529.898Zm3.584-.103.263-.911-.008-.003-.256.914Zm2.114 1.824-.876.387.004.007.872-.394Zm-8.713 33.213-.836.452 1.803-.631-.967.18Zm-1.565-2.829.913-.317-.005-.01-.004-.01-.904.337Zm-2.567-5.865.947-.237-.005-.012-.942.25Zm-.135-.34-.999.058.019.098.037.094.943-.25Zm.417-.406.544.89.007-.002.006-.004-.557-.884Zm1.13-.552.494.913-.493-.913Zm1.546 5.507.993-.085-.003-.011-.002-.011-.988.107Zm.946 3.664.999-.058-.008-.04-.011-.041-.98.14ZM7.295 19.1c.19.049.35.099.54.158l.393-1.867a10.59 10.59 0 0 0-.657-.19l-.276 1.9Zm.599.174c.075.02.356.1.652.083l-.374-1.965a.47.47 0 0 1 .066.001l.02.002a.517.517 0 0 1-.024-.005l-.028-.007-.037-.009-.275 1.9Zm.652.083c.533-.03.825-.337.968-.52l-1.677-1.308c-.014.019.006-.013.063-.05a.56.56 0 0 1 .272-.087l.374 1.965Zm1.064-.678c.074-.158.192-.437.116-.835l-1.996.115a.595.595 0 0 1 .002-.23c.012-.057.028-.084.01-.043l1.868.993Zm.116-.835a1.609 1.609 0 0 0-.234-.57 2.828 2.828 0 0 0-.105-.15l-.062-.084-1.618.982.046.063.018.024.014.02.018.024.001.002a.611.611 0 0 1-.075-.196l1.997-.115Zm-.524-.948c-.46-.462-1-.895-1.686-1.19L6.9 17.492c.315.135.604.349.93.676l1.373-1.271Zm-1.715-1.201a2.122 2.122 0 0 0-.906-.157l.375 1.965c-.014 0-.026 0-.033-.002-.007-.001-.005-.002.006.002l.558-1.808Zm-.906-.157c-.759.044-1.194.555-1.383 1.078l1.928.852c.02-.057.033-.054.006-.03a.255.255 0 0 1-.07.041.334.334 0 0 1-.106.024l-.375-1.965Zm-1.42 1.213a3.47 3.47 0 0 0-.05.586c-.004.187-.002.281-.009.395l2.028.364c.01-.166.01-.367.011-.476a2.03 2.03 0 0 1 .021-.287l-2-.582Zm-.06 1.051c.005.414.022.833.037 1.239.016.41.032.805.037 1.19l2.032.223c-.006-.413-.023-.833-.038-1.238-.016-.41-.032-.806-.037-1.191L5.1 17.802Zm.075 2.457c.104 2.407.279 4.845.708 7.282l2.002-.087c-.407-2.311-.578-4.65-.68-7.028l-2.03-.167Zm.71 7.296c.053.276.098.554.145.85.047.29.096.597.155.906l1.997-.116a29.528 29.528 0 0 1-.145-.849c-.047-.29-.096-.597-.155-.906l-1.997.115Zm.3 1.756a55.842 55.842 0 0 0 1.423 5.76l1.944-.328a53.779 53.779 0 0 1-1.37-5.548l-1.997.116Zm1.43 5.784c.083.253.169.515.254.78l.257.789 1.93-.374-.254-.78-.257-.79-1.93.375Zm.553 1.676c.005.01.006.015.008.022a.807.807 0 0 1 .017.083l1.997-.115c-.021-.112-.059-.32-.176-.579l-1.846.59Zm.025.105a.651.651 0 0 1 .008-.224.653.653 0 0 1 .207-.356c.069-.06.123-.077.092-.064a3.01 3.01 0 0 1-.169.06l.887 1.865c.086-.029.19-.065.283-.104.088-.037.232-.103.365-.219a1 1 0 0 0 .327-.555c.045-.21.02-.4-.003-.518l-1.997.115Zm.088-.564c-.322.132-.779.295-1.132.468l1.09 1.78c.293-.143.565-.23 1.03-.421l-.988-1.828Zm-1.08.444c-.444.183-.933.438-1.317.867l1.607 1.392c.14-.157.354-.29.696-.431l-.987-1.828Zm-1.306.855c-.252.27-.632.755-.488 1.512l1.997-.115a.239.239 0 0 1-.012.125c-.003.008-.002.002.012-.017a.99.99 0 0 1 .075-.089l-1.584-1.416Zm-.488 1.512c.009.044.05.342.264.638l1.618-.982a.762.762 0 0 1 .119.25l-.004-.021-1.997.115Zm.124.38c.174.457.496.788.87.998.324.184.661.261.884.306l.164-1.926a1.77 1.77 0 0 1-.175-.042c-.037-.011-.04-.016-.024-.007.02.012.06.038.102.085a.403.403 0 0 1 .077.12l-1.898.465Zm1.856 1.32c.202.02.503.053.81.036l-.376-1.965a3.135 3.135 0 0 1-.475-.028l.041 1.956Zm.81.036c.327-.02.633-.084.86-.13l-.654-1.928c-.25.05-.42.084-.582.093l.375 1.965Zm.81-.12c.432-.066.822-.169 1.17-.254l-.725-1.913c-.394.097-.677.172-1 .22l.554 1.946Zm.995-.228a1.025 1.025 0 0 0 .443-.13l.033-.02-.009.005a.701.701 0 0 1-.172.072.908.908 0 0 1-.197.032l-.374-1.964a1.026 1.026 0 0 0-.444.13l-.032.02.009-.005a.704.704 0 0 1 .172-.072.91.91 0 0 1 .196-.033l.375 1.965Zm.098-.04a.758.758 0 0 1-.265-.036.942.942 0 0 1-.497-.373.57.57 0 0 1-.028-.05L9.306 40l-.002-.004 1.884-.498a1.635 1.635 0 0 0-.455-.651 1.42 1.42 0 0 0-1.006-.341l.374 1.964Zm-.664-.233a.832.832 0 0 1-.112-.217c-.004-.013-.004-.017.004.022l1.996-.115a2.18 2.18 0 0 0-.05-.218 1.499 1.499 0 0 0-.22-.454l-1.618.982Zm-.05.004c1.141 2.806 2.39 5.593 3.88 8.306l1.768-.744c-1.434-2.61-2.646-5.312-3.769-8.074l-1.879.512Zm3.876 8.3a28.357 28.357 0 0 0 1.913 3.078l1.619-.982a26.071 26.071 0 0 1-1.757-2.827l-1.775.73Zm1.949 3.124c.066.083.202.26.335.408.138.153.356.37.654.529l.796-1.699c.063.034.067.055.003-.016a2.696 2.696 0 0 1-.1-.12l-.066-.083-.075-.094-1.547 1.075Zm.99.937c.322.171.674.232.954.216l-.375-1.965a.375.375 0 0 1 .216.05l-.796 1.699Zm.954.216c.623-.036 1.246-.497 1.21-1.305l-2.03-.164a.468.468 0 0 1 .445-.496l.375 1.965Zm1.208-1.205c.017-.271-.026-.484-.052-.62l-1.997.115.015.081a.7.7 0 0 1 .007.06l2.027.364Zm-.083-.741a27.866 27.866 0 0 1-.236-.79c-.078-.272-.16-.56-.254-.85l-1.935.358c.082.255.157.514.236.79.078.271.16.56.254.85l1.935-.358Zm-.494-1.653c-.65-1.949-1.199-3.908-1.755-5.896l-1.957.284c.554 1.98 1.116 3.989 1.785 5.995l1.927-.383Zm-1.751-5.882c-.122-.46-.225-.914-.334-1.388a43.28 43.28 0 0 0-.35-1.457l-1.965.255c.121.46.225.914.334 1.389.107.469.218.957.35 1.457l1.965-.256Zm-.686-2.85c-.108-.402-.18-.778-.266-1.23l-1.997.116c.084.442.17.891.301 1.38l1.962-.267Zm-.266-1.23-.243-1.272-1.997.116.243 1.272 1.997-.116Zm-.23-1.174c-.004-.05 0-.042-.004-.005a.532.532 0 0 1-.098.232c-.146.202-.346.212-.25.195l-.594-1.94c-.212.037-.609.127-.867.483-.247.34-.23.739-.21.955l2.024.08Zm-.156.366a.373.373 0 0 1-.074.02l-.008.001.017-.001.032-.002-.374-1.965c-.115.007-.326.016-.58.12l.987 1.827Zm-.033.018c.04-.002.037-.001.023-.002a.845.845 0 0 1-.238-.056l.558-1.808a1.494 1.494 0 0 0-.494-.102 2.134 2.134 0 0 0-.223.004l.374 1.964Zm.174.022c.972.017 1.787 0 2.692.049l-.144-1.965c-.951-.052-1.897-.036-2.768-.052l.22 1.968Zm2.68.048a53 53 0 0 1 8.293 1.189l.22-1.914a55.164 55.164 0 0 0-8.634-1.238l.122 1.963Zm8.304 1.191c2.007.435 3.93.927 5.788 1.71l.603-1.791c-2.06-.867-4.147-1.395-6.193-1.838l-.198 1.919Zm5.81 1.719c.877.347 1.592.711 2.155 1.262l1.35-1.293c-.912-.892-1.989-1.398-2.947-1.778l-.558 1.809Zm2.021 1.107c.181.251.45.46.738.575l.558-1.809a.723.723 0 0 1 .323.252l-1.619.982Zm.444.406c.451.352.898.309.983.304l-.375-1.965c-.053.003.033-.007.142.013a.92.92 0 0 1 .396.177l-1.146 1.471Zm.983.304c.017-.001.128-.006.24-.029a.975.975 0 0 0 .58-.344l-1.678-1.308a.76.76 0 0 1 .444-.276c.052-.01.093-.011.04-.008l.374 1.965Zm.69-.242c.247-.2.514-.593.411-1.128l-1.996.115c-.032-.168 0-.3.036-.383a.463.463 0 0 1 .13-.174l1.42 1.57Zm.411-1.128a1.138 1.138 0 0 0-.124-.345l-.017-.03-.003-.008.01.022a.871.871 0 0 1 .073.225l-1.996.116a1.13 1.13 0 0 0 .124.345l.017.03a.1.1 0 0 1 .004.008l-.011-.022a.897.897 0 0 1-.073-.225l1.996-.116Zm-.117-.327c-.179-.449-.57-.776-.58-.785l-1.372 1.271a4.676 4.676 0 0 0 .09.088l.02.02.028.027.007.008a.495.495 0 0 1-.078-.13l1.885-.5Zm-.595-.8c-.944-.913-2.05-1.45-3-1.86l-.622 1.782c.897.387 1.666.784 2.281 1.38l1.341-1.302Zm-2.983-1.853c-1.868-.841-3.78-1.415-5.669-1.873l-.251 1.906c1.814.44 3.576.974 5.264 1.734l.656-1.767ZM26.81 37.04a73.03 73.03 0 0 0-9.878-1.581l.064 1.959c3.193.295 6.419.793 9.58 1.532l.234-1.91Zm-9.922-1.584a10.805 10.805 0 0 0-.25-.01 3.261 3.261 0 0 1-.169-.009.46.46 0 0 1-.133-.025l-.557 1.81c.532.21 1.08.19 1.26.199l-.151-1.965Zm.008 1.515c.001-.002.024-.031.045-.062a.88.88 0 0 0 .117-.24.944.944 0 0 0 .02-.48l-1.997.115c.005.027-.005-.023-.01-.078a.872.872 0 0 1 .034-.333.778.778 0 0 1 .102-.212c.013-.02.025-.035.012-.018l1.677 1.308Zm.182-.783-.007-.034-1.996.115.006.035 1.997-.116Zm-.167.677c-.017.023-.025.025.009-.002l.063-.047c.025-.019.064-.048.103-.08l-1.42-1.57a1.512 1.512 0 0 1-.044.034l-.097.073a1.67 1.67 0 0 0-.29.285l1.676 1.307Zm.158-.115c1.891-1.462 3.615-3.099 5.088-4.943l-1.666-1.323c-1.378 1.727-3.004 3.274-4.807 4.668l1.385 1.598Zm5.082-4.936a25.672 25.672 0 0 0 3.701-6.03l-1.887-.954a24.024 24.024 0 0 1-3.468 5.647l1.654 1.337Zm3.703-6.033c1.105-2.559 1.903-5.38 1.489-8.551h-2.015c.351 2.692-.313 5.17-1.364 7.603l1.89.948Zm1.48-8.61-.086-.446-1.996.115.085.447 1.997-.115Zm-.086-.446c-.239-1.255-.714-2.51-1.702-3.637l-1.477 1.16c.638.727.99 1.578 1.183 2.592l1.996-.115Zm-1.677-3.608c-1.047-1.271-2.482-2.154-4.152-2.319l.05 1.958c.995.098 1.875.611 2.576 1.463l1.526-1.102Zm-4.189-2.322c-.28-.017-.627-.04-1.012-.018l.375 1.965c.244-.015.47-.001.762.017l-.125-1.963Zm-1.012-.018a6.908 6.908 0 0 0-2.343.574l1.013 1.816a5.032 5.032 0 0 1 1.705-.425l-.375-1.965Zm-2.378.59c-1.752.846-2.934 2.198-3.84 3.723l1.793 1.137c.805-1.355 1.776-2.422 3.13-3.076l-1.083-1.784Zm-3.84 3.723c-1.024 1.723-1.63 3.59-2.03 5.517l1.994.616c.374-1.803.928-3.479 1.83-4.996L14.15 15.09Zm-2.028 5.508c-.93 4.276-.922 8.655-.51 13.066l2.024.072c-.402-4.3-.4-8.473.477-12.505l-1.991-.633Zm-.509 13.07c.038.394.086.785.131 1.163.047.381.091.75.127 1.117l2.023.063a52.032 52.032 0 0 0-.132-1.162c-.046-.382-.09-.75-.127-1.118l-2.022-.062Zm.258 2.28c.01.1.006.096.008.061a.666.666 0 0 1 .18-.397c.14-.15.298-.186.302-.188 0 0-.015.004-.131.021l.554 1.946c.073-.01.203-.029.315-.057.116-.03.352-.1.543-.306.205-.22.252-.476.264-.637.01-.143-.004-.29-.012-.38l-2.023-.063Zm.318-.496a22.62 22.62 0 0 1-.724.125c-.246.04-.508.083-.78.136l.635 1.932c.239-.046.473-.085.724-.125.246-.04.509-.083.78-.136l-.635-1.932Zm-1.374.245-.21.012.375 1.964.21-.012-.375-1.964Zm-.21.012c-.06.003-.013-.005.075.012a.977.977 0 0 1 .58.388.62.62 0 0 1 .029.046 4.015 4.015 0 0 1-.053-.14l-1.908.438c.036.1.083.226.139.344.054.113.159.31.351.49.47.44 1.02.395 1.162.386l-.375-1.964Zm.643.344a60.25 60.25 0 0 1-1.854-7.171l-1.997.115a62.33 62.33 0 0 0 1.918 7.418l1.933-.362Zm-1.854-7.171a37.755 37.755 0 0 1-.337-1.945l-2.014.012c.094.686.224 1.365.354 2.048l1.997-.115Zm-.34-1.956a59.005 59.005 0 0 1-.615-7.42l-2.031-.208a60.91 60.91 0 0 0 .637 7.663l2.01-.035Zm-.615-7.405c0-.201-.028-.53-.033-.648a1.521 1.521 0 0 1 .02-.398l-1.988-.65a3.3 3.3 0 0 0-.062.885c.014.306.03.392.032.573l2.031.238Zm15.558-2.764c.315 1.819.124 3.326-.287 4.87l1.972.71c.454-1.704.694-3.489.318-5.662l-2.003.082Zm-.289 4.878c-.556 2.174-1.56 4.164-2.817 6.026l1.743 1.217c1.332-1.972 2.433-4.136 3.05-6.548l-1.976-.695Zm-2.824 6.037c-1.826 2.799-4.15 5.158-6.902 7.107l1.33 1.64c2.912-2.063 5.383-4.57 7.329-7.551l-1.757-1.196Zm-6.851 7.074c-.138.084-.281.176-.413.26a14.6 14.6 0 0 1-.376.238l1.229 1.705c.137-.083.28-.176.412-.26.136-.087.26-.167.376-.237l-1.228-1.706Zm-.789.498a.607.607 0 0 1 .158-.065c.081-.021.152-.023.136-.022l.375 1.964a1.178 1.178 0 0 0 .56-.172l-1.229-1.705Zm.294-.087a.915.915 0 0 1 .361.055c.159.057.3.151.412.268.2.208.236.414.24.437l-1.996.116c.024.127.094.417.349.683.315.33.71.422 1.009.405l-.375-1.964Zm1.013.76-.118-.619-1.997.116.119.619 1.996-.116Zm-.105-.533c-.243-2.379-.439-4.683-.397-6.989l-2.031-.283c-.044 2.427.162 4.827.406 7.217l2.022.055Zm-.397-6.987c.055-2.81.323-5.56 1.05-8.184l-1.968-.728c-.779 2.816-1.056 5.728-1.113 8.626l2.031.286Zm1.047-8.176c.474-1.643 1.086-3.138 2.074-4.444l-1.692-1.288c-1.156 1.528-1.84 3.237-2.344 4.988l1.962.744Zm2.067-4.435c.56-.719 1.188-1.257 1.983-1.626l-1.058-1.796c-1.088.505-1.914 1.232-2.602 2.115l1.677 1.307Zm1.98-1.625a3.58 3.58 0 0 1 1.314-.325l-.374-1.965a5.454 5.454 0 0 0-1.992.491l1.052 1.8Zm1.314-.325c.48-.028.984.048 1.488.236l.511-1.827a5.842 5.842 0 0 0-2.373-.374l.374 1.965Zm1.48.233c.677.257 1.15.68 1.502 1.3l1.752-.773a5.19 5.19 0 0 0-2.727-2.348l-.527 1.821Zm1.506 1.308c.313.541.496 1.075.558 1.397l1.996-.116c-.109-.572-.385-1.333-.81-2.07l-1.744.789ZM16.44 47.744c-.556-.843-1.03-1.736-1.488-2.694l-1.825.634c.48 1.004 1.004 2 1.64 2.964l1.673-.904Zm-1.497-2.713a63.22 63.22 0 0 1-2.524-5.766l-1.894.474a65.446 65.446 0 0 0 2.611 5.964l1.807-.672Zm-2.529-5.778-.135-.34-1.885.499.136.34 1.884-.5Zm-.079-.148a.68.68 0 0 1-.026.339.621.621 0 0 1-.19.282c-.037.03-.058.037-.012.014.048-.025.09-.044.191-.093l-1.089-1.782c-.06.03-.156.075-.222.11a1.622 1.622 0 0 0-.287.18 1.026 1.026 0 0 0-.33.47 1.169 1.169 0 0 0-.032.595l1.997-.115Zm-.024.535c.42-.213.717-.379 1.067-.523l-.987-1.827c-.436.18-.842.403-1.194.581l1.114 1.77Zm1.067-.523a.304.304 0 0 1-.094.022h-.009l-.374-1.964c-.088.005-.277.02-.51.115l.987 1.827Zm-.103.023c-.024.001-.191.012-.404-.077a1.096 1.096 0 0 1-.523-.458.862.862 0 0 1-.076-.175l-.003-.011.001.006.005.02.013.071 1.997-.115c-.01-.05-.024-.13-.042-.202a1.436 1.436 0 0 0-.146-.374 1.303 1.303 0 0 0-.625-.554 1.271 1.271 0 0 0-.572-.096l.375 1.965Zm-.987-.624c.032.164.058.34.087.543.029.194.06.414.101.628l1.997-.115c-.031-.164-.057-.34-.087-.543-.028-.194-.06-.414-.1-.628l-1.998.115Zm.188 1.171c.27 1.408.642 2.794.966 4.13l1.976-.213c-.34-1.405-.689-2.69-.945-4.032l-1.996.115Zm.961 4.109c.278 1.268.62 2.493.96 3.718l1.959-.278c-.343-1.238-.67-2.407-.933-3.61l-1.986.17Zm.941 3.637c.066.346.174.68.258.942l1.935-.358a6.155 6.155 0 0 1-.196-.7l-1.997.116Zm12.13-13.355.887-.365-.016-.03-.018-.03-.854.425Zm.694.864-.628.69.01.008.009.008.61-.706Zm2.636-.257-.887-.585-.007.012-.007.011.901.562Zm.323-.714-.965-.423-.015.044-.011.045.991.334Zm.397-2.178 1.015.17.002-.052-.003-.054-1.014-.064Zm.363-.508.423.939.008-.002.007-.003-.439-.934Zm1.465-.467-.38-.952-.03.008-.029.01.439.934Zm.463-.166.614.853.05-.03.045-.038-.71-.785Zm.157-.287.998-.058-.03-.16-.08-.148-.888.366Zm-.347-.154-.188-.982-.099.006-.093.024.38.952Zm-1.05.235-.364-.956-.03.007-.03.01.423.939Zm-.772.218.188.982.062-.003.06-.011-.31-.968Zm-1.009-1.957-.84.444.004.008.005.007.831-.46Zm-3-.73.674.812.01-.007.01-.008-.695-.797Zm-.494.376.565.88.058-.03.051-.038-.674-.812Zm-.782 1.088-.999-.299-.005.028-.004.028 1.008.243Zm4.38 1.102 1.014.082-.003-.07-.014-.07-.998.058Zm-.3.47.392.947.032-.008.03-.011-.454-.929Zm-1.422.325.188.982.035-.002.035-.005-.258-.975Zm-.578-.071.196-.934-.04-.012-.042-.01-.114.956Zm-.785-1.519-.838-.654-.057.073-.04.084.935.497Zm.885-.364.952.456.014-.034.01-.034-.976-.388Zm-.23-.647-.809.491.055.077.068.068.686-.636Zm.083-.491.545.89.035-.017.034-.02-.614-.854Zm1.697.562-.809.49.02.028.021.027.768-.545Zm.11 2.983-.424-.94-.021.008-.022.007.467.925Zm.533-.17 1.014.174.086-1.6-1.524.487.424.939Zm-.703 2.613.838.653.022-.028.02-.03-.88-.595Zm-1.166-.002-.744.573.02.023.02.022.704-.618Zm-.85-2.419.353-.872-.037-.018-.037-.014-.28.904Zm-2.65-.264c.222 1.16.551 2.074 1.099 2.955l1.706-.851c-.37-.596-.622-1.247-.808-2.22l-1.997.116Zm1.064 2.895c.228.423.55.833.954 1.188l1.256-1.38a1.981 1.981 0 0 1-.435-.54l-1.775.731Zm.973 1.204c.65.548 1.427.865 2.207.82l-.374-1.965c-.128.008-.339-.035-.615-.268l-1.218 1.413Zm2.207.82c.844-.049 1.526-.512 1.939-1.222l-1.802-1.123c-.172.297-.377.373-.511.38l.374 1.965Zm1.925-1.199a3.34 3.34 0 0 0 .427-.964l-1.982-.668a1.712 1.712 0 0 1-.219.463l1.774 1.17Zm.401-.875c.29-.814.407-1.641.447-2.43l-2.03-.343c-.034.676-.13 1.32-.347 1.927l1.93.846Zm.446-2.537c0 .005.004.12-.085.242-.082.113-.174.135-.143.125l-.847-1.878c-.235.075-.517.212-.719.488-.208.286-.252.612-.234.894l2.028.13Zm-.213.362c.236-.08.467-.151.71-.226.24-.075.494-.153.755-.24l-.877-1.87c-.236.08-.467.152-.71.227-.24.075-.493.153-.755.24l.877 1.87Zm1.406-.45c.134-.035.441-.109.698-.264l-1.228-1.706c.013-.008.008-.002-.038.013s-.101.03-.19.054l.758 1.904Zm.793-.332.007-.005.038-.028c.03-.023.104-.079.175-.16a.986.986 0 0 0 .215-.387c.05-.176.049-.354.018-.516l-1.997.116a.743.743 0 0 1 .015-.342.67.67 0 0 1 .142-.262c.04-.043.072-.066.06-.056l-.03.021a2.118 2.118 0 0 0-.062.049l1.42 1.57Zm.453-1.096-.007-.034-1.996.116.006.034 1.997-.116ZM33.893 30a1.485 1.485 0 0 0-1.353-.774l.375 1.964a.866.866 0 0 1-.798-.459l1.776-.73Zm-1.353-.774-.07.004.375 1.964.07-.004-.375-1.964Zm-.262.034c-.14.038-.287.069-.462.105-.17.035-.366.075-.572.126l.726 1.912c.166-.04.326-.074.505-.11.174-.037.367-.077.562-.129l-.759-1.904Zm-1.095.248c-.304.097-.459.153-.656.19l.62 1.935c.347-.065.656-.175.884-.247l-.848-1.878Zm-.534.175-.07.004.375 1.965.07-.005-.375-1.964Zm-.07.004a.826.826 0 0 1 .542.186.825.825 0 0 1 .312.48l-1.997.115c.054.283.21.62.538.876.328.256.692.324.98.308l-.375-1.965Zm.854.666c-.027-.144-.068-.278-.09-.355a1.891 1.891 0 0 1-.044-.16l-1.996.116c.027.144.067.278.09.355.028.094.038.13.043.16l1.997-.116Zm-.134-.514a4.16 4.16 0 0 0-.64-1.59l-1.663.918a2 2 0 0 1 .307.787l1.996-.115Zm-.631-1.576c-.672-1.035-1.757-1.747-2.942-1.678l.375 1.964c.213-.012.556.097.885.603l1.682-.89Zm-2.942-1.678a2.816 2.816 0 0 0-1.594.595l1.388 1.595c.202-.156.392-.215.581-.226l-.375-1.964Zm-1.574.58c-.09.065-.184.14-.267.203a10.08 10.08 0 0 1-.227.173l1.35 1.625c.088-.065.183-.139.266-.203.087-.067.161-.125.227-.173l-1.35-1.625Zm-.385.309c-.715.373-1.085 1.005-1.215 1.67l1.998.596c.05-.25.164-.41.348-.506l-1.13-1.76Zm-1.224 1.725c-.108.828-.112 1.7.012 2.351l1.997-.115c-.072-.38-.085-1.037.007-1.75l-2.016-.486Zm4.31.99.079.413 1.996-.116-.078-.412-1.997.115Zm.062.273c.001.016-.007-.084.067-.203a.422.422 0 0 1 .195-.175l.908 1.858c.244-.088.503-.243.676-.524a1.37 1.37 0 0 0 .184-.793l-2.03-.163Zm.324-.397c-.482.134-.886.246-1.288.298l.516 1.951c.564-.073 1.099-.224 1.556-.353l-.784-1.896Zm-1.217.291a.613.613 0 0 1-.195-.022l-.393 1.867c.328.103.675.137.963.12l-.375-1.965Zm-.277-.044c-.037-.008-.05-.022-.05-.021a.175.175 0 0 1 .03.068l-1.997.115c.163.855.913 1.547 1.788 1.75l.23-1.912Zm-.02.047c.005.025 0 .038.003.025a.695.695 0 0 1 .053-.138l-1.87-.994c-.124.266-.285.686-.183 1.222l1.997-.115Zm-.04.044a.531.531 0 0 1-.186.152.619.619 0 0 1-.24.06l-.375-1.965a1.209 1.209 0 0 0-.876.445l1.677 1.308Zm-.426.211.28-.016-.376-1.965-.28.017.376 1.964Zm.28-.016a1.48 1.48 0 0 0 .612-.158c.258-.137.432-.35.532-.6l-1.905-.91a.44.44 0 0 1 .077-.122.535.535 0 0 1 .152-.121c.106-.057.19-.056.156-.054l.375 1.965Zm1.168-.825c.04-.128.101-.4.046-.69l-1.997.115a.665.665 0 0 1-.01-.163.182.182 0 0 1 .008-.037l1.953.775Zm.046-.69c-.087-.458-.38-.795-.566-.98l-1.372 1.27c.029.03.027.032.013.01a.527.527 0 0 1-.072-.185l1.997-.115Zm-.443-.836-.053-.075-.008-.011c.01.016.067.11.093.25l-1.996.116c.04.208.127.37.188.47.054.088.12.18.158.232l1.618-.982Zm.032.164a.797.797 0 0 1-.054.482.677.677 0 0 1-.198.253c-.04.03-.066.043-.049.034.018-.01.035-.017.088-.043l-1.09-1.781c-.026.013-.206.093-.337.195a.965.965 0 0 0-.356.976l1.996-.116Zm-.144.688-.011.007.009-.004a.123.123 0 0 1 .013-.003h-.003l-.375-1.964a1.92 1.92 0 0 0-.861.259l1.228 1.705Zm.008 0a.145.145 0 0 1 .08.023.593.593 0 0 1 .186.178l1.618-.982c-.524-.728-1.359-1.235-2.259-1.183l.375 1.964Zm.307.255c.16.196.265.445.34.835l1.997-.115c-.11-.573-.314-1.21-.801-1.81l-1.536 1.09Zm1.302 3.377.533-.17-.848-1.878-.533.17.848 1.878Zm-.906-1.283c-.05.946-.193 1.613-.568 2.191l1.76 1.191c.608-.938.78-1.958.837-3.034l-2.029-.349Zm-.526 2.133a.797.797 0 0 1-.06.07c-.014.014-.017.014-.008.008a.321.321 0 0 1 .07-.035.517.517 0 0 1 .149-.03l.374 1.965c.594-.035.95-.411 1.151-.67l-1.676-1.308Zm.15.013a.49.49 0 0 1 .247.047c.03.016.02.017-.022-.026l-1.407 1.236c.334.348.887.747 1.557.708l-.374-1.965Zm.266.065c-.442-.511-.708-1.01-.81-1.543l-1.996.116c.187.98.672 1.828 1.318 2.574l1.488-1.147Zm-.81-1.543-.033-.172-1.996.116.033.172 1.996-.116Zm-.033-.172c0 .002.008.037.008.092a.739.739 0 0 1-.365.628.792.792 0 0 1-.353.106l-.375-1.965c-.31.018-.685.167-.858.569a1.185 1.185 0 0 0-.053.686l1.996-.116Zm-.71.826c.016 0-.054.005-.142-.007a.768.768 0 0 1-.178-.045l.558-1.808a1.504 1.504 0 0 0-.356-.096c-.133-.018-.238-.01-.257-.009l.375 1.965Zm-.394-.084a3.43 3.43 0 0 0 1.71.32l-.374-1.964c-.265.015-.465-.021-.63-.1l-.706 1.744Zm1.71.32a4.396 4.396 0 0 0 1.295-.29l-.933-1.849a2.536 2.536 0 0 1-.736.175l.375 1.965Zm2.509-20.777-.188-.982-.332.019-.23.212.75.75Zm.216.022.279-.904-.23-.092-.236.014.187.982Zm.627-.418 1.013.05-.005-.054-.01-.054-.998.058Zm-.429-.949.704-.618-.032-.034-.035-.031-.637.683Zm-1.319-.063.784.718.029-.03.026-.034-.839-.654Zm-.294.678 1.002.281.006-.033.003-.034-1.011-.214Zm-.168 1.157-1.013-.203v.01l1.013.193Zm.44 8.42 1.01.013-.003-.023-.004-.023-1.002.034Zm1.244 5.595.979-.144-.004-.012-.975.156Zm1.862 5.87-.95.227.002.008.003.008.945-.242Zm1.233 2.57.899-.343-.012-.022-.012-.021-.875.387Zm.986-.195 1.01.012-.004-.035-.007-.035-.999.058Zm-.054-.658 1.015.105v-.027l-1.015-.078Zm.337-3.6.998.307.002-.012-1-.294Zm.965-2.906-.838-.653-.04.05-.03.055.908.548Zm.157-.287-.838-.653-.057.072-.04.085.935.496Zm.328.05.998-.057-.03-.16-.08-.148-.888.366Zm.052.276-.998.058.006.032.009.033.983-.123Zm.4 1.54-.983.124.008.034.012.033.963-.19Zm1.014 2.167.822-.473-.006-.01-.007-.008-.809.49Zm2.127.78-.397-.947-.05.014-.046.02.493.913Zm3.496-2.044.787.713.028-.029.024-.03-.839-.654Zm.227-.292-.838-.653.838.653Zm-.037-.38.81-.49-.81.49Zm-.42.024.615.853.131-.08.093-.119-.838-.654Zm-.366.3-.749-.751-.004.004.753.747Zm-2.644 1.509-.439-.935-.008.003-.008.003.455.929Zm-1.734-.943.951-.225-.003-.008-.003-.007-.945.24Zm-.678-2.255.99-.1-.003-.01-.002-.009-.985.12Zm-.566-1.67.87-.4-.005-.007-.865.407Zm-1.68-.285-.791-.709.792.709Zm-.462.722-.921-.524-.011.021-.01.023.942.48Zm-1.12 4.131 1.004.276.003-.017.002-.017-1.009-.242Zm-.2 1.541-.942.25 1.95-.012-1.008-.237Zm-.177-.372-.953.221.027.074.038.07.888-.365Zm-2.255-7.377-.99.095v.003l.99-.098Zm-1.065-5.952 1.012.037-.001-.007-.001-.007-1.01-.023Zm-.133-6.249 1.013.201.003-.032v-.033l-1.016-.136Zm.277.525.105-.006-.375-1.964-.105.006.375 1.964Zm.105-.006a.991.991 0 0 1-.4-.06c-.01-.003-.018-.006-.01-.004.002.002.02.008.039.015a1.373 1.373 0 0 0 .251.066c.065.01.144.017.231.011l-.374-1.964a.987.987 0 0 1 .4.06l.01.004-.039-.016a1.317 1.317 0 0 0-.252-.065 1.114 1.114 0 0 0-.23-.011l.374 1.964Zm-.355-.05c.381.152.673.136.794.129l-.375-1.965c-.032.002-.003 0 .034.003a.41.41 0 0 1 .105.025l-.558 1.809Zm.794.129c.349-.02.7-.168.922-.498.2-.296.223-.637.203-.902L30.9 11.78c.003.045-.017-.067.078-.21a.592.592 0 0 1 .448-.253l.375 1.965Zm1.11-1.51-.033-.171-1.996.115.032.172 1.997-.115Zm-.033-.171a2.635 2.635 0 0 0-.69-1.337l-1.407 1.236a.41.41 0 0 1 .1.216l1.997-.115Zm-.758-1.402c-.39-.35-.956-.674-1.594-.637l.375 1.965a.293.293 0 0 1-.127-.018.536.536 0 0 1 .075.056l1.27-1.367Zm-1.594-.637c-.445.026-.89.206-1.199.604l1.677 1.307a.147.147 0 0 1-.052.039.145.145 0 0 1-.051.015l-.375-1.965Zm-1.144.54a1.977 1.977 0 0 0-.523 1.18l2.023.43a.387.387 0 0 1 .027-.111.207.207 0 0 1 .04-.064l-1.567-1.435Zm-.514 1.114c-.066.378-.141.804-.178 1.235l2.025.405c.029-.337.09-.684.158-1.078l-2.005-.563Zm-.178 1.244c-.216 2.879-.028 5.761.45 8.649l2.006-.068c-.457-2.759-.633-5.487-.43-8.194l-2.026-.387Zm.444 8.603c.062.524.161 1.04.252 1.516l1.996-.116a19.658 19.658 0 0 1-.23-1.376l-2.018-.024Zm.252 1.516a45.14 45.14 0 0 0 1.027 4.245l1.95-.31a43.022 43.022 0 0 1-.98-4.051l-1.997.116Zm1.023 4.233c.55 1.957 1.15 3.973 1.89 5.954l1.901-.453c-.707-1.897-1.288-3.846-1.834-5.788l-1.957.287Zm1.895 5.97c.366.936.798 1.83 1.302 2.715l1.751-.774a18.475 18.475 0 0 1-1.163-2.426l-1.89.485Zm1.278 2.672c.127.247.31.56.595.805.365.31.77.408 1.128.387l-.375-1.964a.619.619 0 0 1 .219.031.76.76 0 0 1 .258.142c.051.044.068.073.056.055a1.38 1.38 0 0 1-.082-.144l-1.799.688Zm1.723 1.192.07-.004L35 34.68l-.07.004.375 1.964Zm.07-.004c.22-.013.458-.076.665-.231.205-.154.32-.353.382-.536.112-.326.086-.69.056-.949l-2.019-.025c.012.096.014.154.013.187 0 .036-.005.013.013-.039a.538.538 0 0 1 .19-.25.61.61 0 0 1 .325-.121l.374 1.964Zm1.092-1.786a3.275 3.275 0 0 1-.038-.495l-2.03-.21c.004.213.015.526.071.82l1.997-.115Zm-.039-.522c-.056-1.138.09-2.246.321-3.371l-1.995-.613c-.245 1.197-.422 2.471-.355 3.828l2.03.156Zm.323-3.383c.187-.98.436-1.867.873-2.652l-1.816-1.097c-.563 1.01-.855 2.101-1.056 3.16l2 .589Zm.804-2.547c.126-.162.217-.366.253-.444l-1.87-.993a3.17 3.17 0 0 1-.071.145l.01-.015 1.678 1.307Zm.157-.287a.633.633 0 0 1-.222.172c-.158.077-.31.08-.303.08l-.374-1.965c-.027.002-.215.007-.413.104-.18.087-.294.21-.365.302l1.677 1.307Zm-.525.252a.929.929 0 0 1-.509-.125.948.948 0 0 1-.365-.365l1.776-.73a1.444 1.444 0 0 0-.555-.571 1.308 1.308 0 0 0-.721-.174l.374 1.965Zm-.984-.797.052.275 1.997-.116-.053-.275-1.996.116Zm.067.34.4 1.54 1.967-.245-.4-1.541-1.967.246Zm.42 1.608c.253.763.58 1.65 1.168 2.467l1.618-.982c-.372-.518-.614-1.128-.859-1.865l-1.927.38Zm1.155 2.448c.293.423.659.8 1.124 1.059.476.265.976.361 1.467.333l-.375-1.965a.439.439 0 0 1-.256-.045c-.06-.033-.17-.115-.316-.327l-1.644.945Zm2.59 1.392c.176-.01.498-.024.853-.17l-.987-1.827c-.038.015-.066.022-.24.032l.375 1.965Zm.757-.137c1.506-.43 2.828-1.162 3.885-2.278l-1.574-1.427c-.824.87-1.865 1.457-3.106 1.811l.794 1.894Zm3.937-2.338.227-.29-1.677-1.308-.227.291 1.677 1.307Zm.227-.29a1.13 1.13 0 0 0 .225-.925l-1.996.116a.623.623 0 0 1 .094-.5l1.677 1.308Zm.225-.925a1.248 1.248 0 0 0-.227-.518l-.068-.088c-.01-.012-.004-.006.003.005l-1.618.982c.032.044.06.08.073.095.018.023.005.007-.008-.012a.893.893 0 0 1-.151-.348l1.996-.116Zm-.292-.6a1.394 1.394 0 0 0-1.19-.585l.374 1.965a.945.945 0 0 1-.802-.399l1.618-.982Zm-1.19-.585a1.21 1.21 0 0 0-.877.446L44.9 30.24a.53.53 0 0 1-.186.153.619.619 0 0 1-.24.059l-.374-1.965Zm-.652.247c-.214.13-.397.304-.502.4l1.498 1.503a1.83 1.83 0 0 1 .232-.198l-1.228-1.705Zm-.506.405c-.64.6-1.42 1.015-2.33 1.321l.877 1.869c1.083-.365 2.1-.889 2.96-1.696l-1.507-1.494Zm-2.346 1.327a1.342 1.342 0 0 1-.342.086l.375 1.964c.3-.017.595-.092.876-.193l-.909-1.857Zm-.342.086c-.037.002-.009-.005.056.018.074.026.13.068.157.096.019.018.002.007-.041-.072a3.058 3.058 0 0 1-.158-.367l-1.903.45c.15.406.36.886.724 1.255a1.95 1.95 0 0 0 1.54.584l-.375-1.964Zm.008-.34a15.894 15.894 0 0 1-.634-2.115l-1.978.2c.192.817.42 1.62.72 2.396l1.892-.481Zm-.638-2.134c-.117-.458-.267-1.24-.682-1.95l-1.738.798c.215.366.288.752.45 1.39l1.97-.238Zm-.686-1.958c-.418-.702-1.153-1.265-2.057-1.212l.375 1.964c-.011 0-.031 0-.056-.007a.212.212 0 0 1-.057-.024c-.023-.014.009-.003.066.092l1.729-.813Zm-2.057-1.212c-.55.031-.971.294-1.28.625l1.585 1.417a.395.395 0 0 1 .096-.082c.008-.004-.002.003-.026.004l-.375-1.964Zm-1.28.625c-.293.316-.469.668-.591.907l1.842 1.048c.135-.263.217-.413.334-.538l-1.584-1.417Zm-.612.95c-.605 1.369-.991 2.862-1.186 4.37l2.017.484c.176-1.363.523-2.693 1.053-3.893l-1.884-.96Zm-1.18 4.337c-.088.516-.141 1.05-.207 1.579l2.018.475c.073-.59.116-1.036.195-1.503l-2.007-.552Zm1.744 1.567c-.091-.23-.17-.375-.231-.488l-1.776.73.063.121c.017.034.036.076.06.136l1.884-.499Zm-.166-.343c-.875-2.39-1.647-4.805-2.219-7.255l-1.98.196c.597 2.557 1.398 5.056 2.293 7.5l1.906-.441Zm-2.218-7.253a73.174 73.174 0 0 1-.587-2.708l-1.996.115c.18.95.397 1.894.602 2.784l1.98-.19Zm-.587-2.708a32.13 32.13 0 0 1-.456-3.11l-2.024-.075c.102 1.113.276 2.214.484 3.3l1.996-.115Zm-.458-3.125c-.22-2.065-.296-4.083-.13-6.07l-2.025-.403c-.178 2.134-.096 4.277.134 6.428l2.021.045Zm-.127-6.136a3.197 3.197 0 0 0-.001-.133l-.001-.028c0-.036 0-.034-.001-.02a.568.568 0 0 1-.174.339l-1.498-1.502a1.136 1.136 0 0 0-.352.749 2.025 2.025 0 0 0-.006.225l.002.098 2.031.272Zm11.46 15.062-.998.057.01.053.016.053.972-.163Zm1.246 3.751-.912.319.003.006.909-.325Zm.843 1.272-.727.593.016.018.017.016.694-.627Zm2.348.455.577.874.03-.016.028-.019-.635-.839Zm3.611-3.476-.838-.654-.023.03-.02.031.881.592Zm.157-.288.935.497.025-.053.017-.056-.977-.388Zm-.135-.34-.574.736.574-.735Zm-.315.019-.614-.853-.073.044-.061.058.748.75Zm-.318.366-.839-.654-.009.012-.009.012.857.63Zm-3.1 2.821-.632-.842-.014.009-.013.009.658.824Zm-1.449-.368.828-.464-.015-.023-.017-.022-.796.509Zm-.994-2.063-.984.123.01.037.012.036.962-.196Zm-.516-2.334 1.012.215.013-.135-.026-.137-.999.058Zm-.293-.608-.726.593.02.021.02.021.686-.635Zm-.75-.235-.188-.982-.062.003-.06.012.31.967Zm-.392.544 1.016.136V27.5l-.002-.036-1.014-.065Zm-.915.647c.35 1.16.672 2.588 1.306 3.907l1.824-.638c-.537-1.116-.772-2.228-1.185-3.596l-1.945.327Zm1.31 3.913a6.424 6.424 0 0 0 1.024 1.54l1.454-1.186a4.123 4.123 0 0 1-.662-1.004l-1.817.65Zm1.057 1.574c.638.652 1.458 1.121 2.395 1.067l-.375-1.964c-.11.006-.304-.023-.632-.358l-1.388 1.255Zm2.395 1.067a2.88 2.88 0 0 0 1.224-.365l-1.154-1.748c-.206.111-.341.143-.445.149l.375 1.964Zm1.282-.4c1.483-.96 2.852-2.153 3.858-3.723l-1.764-1.185c-.844 1.318-2.017 2.357-3.364 3.23l1.27 1.678Zm3.815-3.662c.126-.161.216-.366.253-.444l-1.87-.994a3.19 3.19 0 0 1-.058.123l-.013.023.01-.015 1.678 1.307Zm.295-.553a1.166 1.166 0 0 0 .023-.619l-1.996.115.002.009a.652.652 0 0 1 .018-.28l1.953.775Zm.024-.62a1.29 1.29 0 0 0-.265-.55 1.793 1.793 0 0 0-.298-.293l-1.147 1.471a.626.626 0 0 1-.103-.104.969.969 0 0 1-.184-.408l1.997-.115Zm-.563-.843a1.525 1.525 0 0 0-.373-.212 1.29 1.29 0 0 0-.54-.095l.374 1.964a.957.957 0 0 1-.392-.06.865.865 0 0 1-.215-.126l1.146-1.47Zm-.913-.307a1.126 1.126 0 0 0-.51.156c-.042.025-.08.052-.084.055-.011.008-.005.003.005-.003l1.229 1.706c.041-.026.075-.05.089-.06l-.011.007a.792.792 0 0 1-.343.103l-.375-1.964Zm-.723.31c-.178.164-.332.364-.409.463l1.677 1.308c.093-.12.167-.211.23-.27l-1.498-1.501Zm-.427.487c-.761 1.054-1.739 1.883-2.875 2.609l1.262 1.684c1.258-.803 2.41-1.766 3.326-3.034l-1.713-1.259Zm-2.902 2.627a.818.818 0 0 1-.146.085c-.027.011-.017.002.027 0l.375 1.964c.424-.025.781-.207 1.06-.4l-1.316-1.65Zm-.119.085a.476.476 0 0 1 .292.087c.02.014.015.014-.012-.017a1.663 1.663 0 0 1-.123-.163l-1.656.928c.176.26.404.55.71.771.347.253.747.382 1.164.358l-.375-1.965Zm.125-.138c-.358-.478-.59-1.048-.828-1.75l-1.924.392c.248.73.57 1.588 1.16 2.376l1.592-1.018Zm-.806-1.677c-.08-.305-.192-.62-.274-.86a4.957 4.957 0 0 1-.188-.646l-1.997.116c.064.335.172.661.263.927.098.288.174.501.228.71l1.968-.247Zm-.462-1.506a1.837 1.837 0 0 1-.026-.49l-2.023-.429c-.034.342-.01.712.052 1.035l1.997-.116Zm-.04-.762-.02-.103-1.996.115.02.103 1.996-.115Zm-.02-.103a2.182 2.182 0 0 0-.584-1.084l-1.373 1.271a.269.269 0 0 1-.026-.03l-.002-.002-.001-.003a.214.214 0 0 1-.01-.037l1.997-.115Zm-.544-1.041a1.89 1.89 0 0 0-1.526-.632l.375 1.964c-.003 0-.045.003-.112-.021a.484.484 0 0 1-.19-.125l1.453-1.186Zm-1.526-.632-.14.008.375 1.964.14-.008-.375-1.964Zm-.262.023c-.794.147-1.135.806-1.095 1.447l2.028.129a.318.318 0 0 1-.061.194.401.401 0 0 1-.252.165l-.62-1.935Zm-1.096 1.375c-.004.282.042.51.074.677l1.996-.115a1.365 1.365 0 0 1-.039-.29l-2.031-.272Zm.698-3.932-.07.004.375 1.964.07-.004-.375-1.964Zm-.07.004c-.999.058-1.611.915-1.428 1.875l1.996-.115c.013.066-.032.195-.193.204l-.374-1.964Zm-1.428 1.875c.093.487.348.95.68 1.3.312.327.857.717 1.519.678l-.375-1.964a.496.496 0 0 1 .25.048c.035.018.038.027.02.008a.401.401 0 0 1-.098-.185l-1.996.115Zm2.199 1.978a1.633 1.633 0 0 0 1.239-.693 1.77 1.77 0 0 0 .297-1.362l-1.997.116c-.006-.031-.001-.044-.003-.038a.102.102 0 0 1-.015.032c-.01.013-.015.015-.006.01a.243.243 0 0 1 .11-.03l.375 1.965Zm1.536-2.055c-.176-.924-1.1-1.868-2.237-1.802l.375 1.964a.23.23 0 0 1-.092-.014.13.13 0 0 1-.038-.02l-.002-.002-.003-.01 1.997-.116Zm5.197 1.958.989-.104-.003-.01-.002-.01-.983.124Zm1.275 4.272.96-.203-.004-.008-.002-.008-.954.219Zm1.857 3.994-.848.434.004.006.844-.44Zm1.736 1.88.537-.763-.007-.005-.007-.004-.523.772Zm2.593-.115.783.718.004-.005-.788-.713Zm.834-1.37.969.412.004-.012.003-.011-.976-.388Zm.32-1.095-.989-.345-.007.032-.006.031 1.002.282Zm1.875-5.357-.838-.654-.061.078-.041.091.94.484Zm.144-.356.977.387.066-.213-.044-.232-.999.058Zm-.395-.22-.839-.655.839.654Zm-.3.468-.838-.653-.053.069-.039.079.93.505Zm-1.89 4.907.977.387.003-.007.002-.008-.982-.372Zm-.506 1.42-.927-.512-.016.032-.014.034.957.445Zm-.788 1.053.614.853.026-.016.025-.018-.665-.819Zm-1.367-.13-.654.667.039.036.041.033.574-.735Zm-.977-1.229-.845.438.009.013.008.013.828-.464Zm-2.007-4.229-.96.205.004.01.956-.215Zm-1.019-3.486.986-.114-.002-.007-.984.12Zm-1.264-6.253-1.006.01.001.005 1.005-.015Zm-.492-4.247 1.014.061-.002-.022-.002-.021-1.01-.018Zm.385-.579.349.96.045-.01.044-.015-.438-.935Zm1.583-.404.368.955.003-.001-.371-.954Zm6.46-1.139.218.98h.01l-.229-.98Zm6.601-.208-.05-.981-.009-.001.06.982Zm2.42.277.094-.96-.012-.003-.082.963Zm.723.27.449-.82-.025-.015-.026-.014-.398.85Zm.103.725-.675-.813-.039.029-.035.032.749.752Zm-.837.43.35.96.074-.017.07-.029-.494-.914Zm-.532.17.493.914.026-.01.025-.013-.544-.89Zm.141.374.188.983.083-.005.079-.018-.35-.96Zm1.671-.687.72.776.007-.005.006-.006-.733-.765Zm-.061-1.248.662-.659-.008-.007-.007-.007-.647.673Zm-.756-.443.22-.926-.011-.004-.012-.003-.197.933Zm-1.136-.212-.025.973.013.001.012-.974Zm-6.617-.243-.155-.983h-.016l-.016.001.187.982Zm-4.627.373.242.977h.003l-.245-.977Zm-1.89.283.28.972.009-.001.008-.001-.296-.97Zm-3.205.602.187.983.08-.005.077-.017-.344-.96Zm-.603-.382-1.013-.055.004.057.01.056.999-.058Zm-.134-2.738-1.016-.136v.04l.003.04 1.013.056Zm.262-.293-.286-.972-.047.008-.046.012.38.952Zm-.288-1.513-.574.735.028.022.03.02.516-.777Zm-1.206.348-.996-.311-.002.01-.002.01 1 .29Zm-.046.872 1.015.077v-.013l-1.015-.064Zm.172 3.674-1.015-.082v.016l.002.015 1.013.051Zm-.356.542-.297-.97-.103.018-.094.038.494.914Zm-.302.087-.187-.982-.1.006-.094.025.381.951Zm-9.45 3.606-.567-.88-.007.004.573.876Zm-2.274 1.418-.702-.791-.016.012-.014.013.732.766Zm-.44.651-1.001-.29-.004.017-.002.017 1.006.256Zm.45.878-.398.85.058.03.06.024.28-.904Zm1.277-.526-1.013-.203-.002.023v.023l1.015.157Zm.482-.619.526.9.046-.021.042-.026-.614-.853Zm1.4-.81.545.89.008-.004.008-.004-.561-.883Zm8.47-3.376.424.938.022-.006.02-.008-.465-.924Zm.977.673-1.015-.082.002.034.003.033 1.01.015Zm-.17 5.884.145.757 1.996-.116-.144-.756-1.997.115Zm.145.757c.124.65.326 1.713.596 2.745l1.967-.25a40.178 40.178 0 0 1-.567-2.611l-1.996.116Zm.591 2.724a39.974 39.974 0 0 0 1.309 4.385l1.907-.437a37.858 37.858 0 0 1-1.24-4.157l-1.976.209Zm1.303 4.37c.487 1.406 1.097 2.85 1.97 4.225l1.694-.869c-.744-1.173-1.288-2.443-1.745-3.762l-1.919.405Zm1.973 4.23c.502.782 1.152 1.58 2.057 2.214l1.046-1.545c-.563-.394-1.013-.922-1.416-1.548l-1.687.88Zm2.044 2.205c.663.477 1.371.737 2.122.694l-.375-1.965c-.158.01-.355-.026-.674-.256l-1.073 1.527Zm2.122.694c.74-.043 1.323-.37 1.79-.855l-1.567-1.436c-.24.252-.431.317-.598.326l.375 1.965Zm1.794-.86a4.469 4.469 0 0 0 1.016-1.67l-1.939-.823c-.14.41-.345.742-.652 1.068l1.575 1.425Zm1.023-1.694c.08-.26.266-.745.347-1.203l-2.005-.563c-.055.315-.157.543-.295.99l1.953.776Zm.333-1.14a31.886 31.886 0 0 1 1.826-5.217l-1.88-.969a33.577 33.577 0 0 0-1.924 5.497l1.978.69Zm1.724-5.048c.208-.265.278-.606.283-.622l-1.954-.775-.034.12-.013.043c0 .001.003-.01.011-.025a.31.31 0 0 1 .03-.048l1.678 1.307Zm.305-1.067-.014-.069-1.996.116.013.068 1.997-.115Zm-.014-.069a1.448 1.448 0 0 0-.527-.846l-1.147 1.471a.91.91 0 0 1-.209-.225.806.806 0 0 1-.113-.284l1.996-.116Zm-.527-.846a1.533 1.533 0 0 0-.374-.212 1.293 1.293 0 0 0-.54-.095l.375 1.965a.957.957 0 0 1-.392-.06.872.872 0 0 1-.216-.127l1.147-1.47Zm-.914-.307c-.509.03-.74.358-.778.405l1.677 1.308c.025-.032-.027.043-.116.108a.77.77 0 0 1-.408.144l-.375-1.965Zm-.778.405c-.098.127-.172.26-.214.331a1.33 1.33 0 0 1-.085.139l1.677 1.307c.099-.126.173-.259.214-.33.052-.09.07-.12.085-.14l-1.677-1.307Zm-.39.618a31.916 31.916 0 0 0-1.942 5.04l1.963.744a30.24 30.24 0 0 1 1.84-4.773l-1.862-1.011ZM57.59 33.71c-.164.532-.265.906-.457 1.296l1.855 1.023c.266-.54.414-1.084.555-1.544l-1.953-.775Zm-.487 1.362c-.12.31-.281.527-.496.68l1.33 1.638c.532-.377.868-.883 1.08-1.428l-1.914-.89Zm-.445.646a1.994 1.994 0 0 1-.148.081c-.02.008 0-.003.048-.006l.375 1.965c.43-.025.756-.215.953-.334l-1.228-1.706Zm-.1.075c.015 0 .03 0 .045.003s.021.006.019.004a.717.717 0 0 1-.144-.094l-1.147 1.471c.4.312.948.618 1.602.58l-.375-1.964Zm0-.018c-.27-.252-.493-.572-.802-1.027l-1.656.928c.282.415.649.965 1.15 1.432l1.309-1.333Zm-.784-1c-.795-1.245-1.387-2.585-1.898-4.007l-1.91.43c.541 1.507 1.199 3.014 2.117 4.451l1.69-.874Zm-1.895-3.996a39.345 39.345 0 0 1-.99-3.396l-1.973.228c.304 1.217.64 2.412 1.046 3.577l1.917-.409Zm-.993-3.403c-.274-1.066-.546-2.131-.742-3.16l-1.996.115c.21 1.102.498 2.229.77 3.287l1.968-.242Zm-.742-3.16-.131-.688-1.997.115.132.688 1.996-.116Zm-.131-.688c-.146-.766-.252-1.502-.369-2.3l-2.011.03c.115.788.228 1.57.383 2.385l1.997-.115Zm-.368-2.294c-.2-1.42-.394-2.798-.485-4.176l-2.027-.123c.097 1.462.301 2.91.5 4.319l2.012-.02Zm-.489-4.22c-.013-.116-.012-.14-.013-.133a.585.585 0 0 1-.103.3.597.597 0 0 1-.264.221c-.015.006-.005 0 .103-.024l-.697-1.92c-.095.023-.24.056-.374.11a1.09 1.09 0 0 0-.513.4c-.15.224-.178.46-.182.611-.005.143.011.292.023.4l2.02.035Zm-.187.339c.454-.154.892-.228 1.513-.384l-.736-1.91c-.458.115-1.112.243-1.654.425l.877 1.869Zm1.516-.385c2.085-.53 4.147-.92 6.307-1.113l-.437-1.96c-2.287.204-4.452.615-6.612 1.165l.742 1.908Zm6.317-1.114a59.578 59.578 0 0 1 2.426-.209l-.374-1.965c-.828.048-1.681.134-2.51.216l.458 1.958Zm2.426-.209a32.136 32.136 0 0 1 4.006.003l-.118-1.963a34.219 34.219 0 0 0-4.262-.005l.374 1.965Zm3.998.003c.806.06 1.558.113 2.287.259l.164-1.926c-.888-.178-1.782-.238-2.553-.295l.102 1.962Zm2.275.256c.134.028.26.076.419.16l.796-1.699a3.862 3.862 0 0 0-1.027-.382l-.188 1.921Zm.368.131a.603.603 0 0 1-.268-.397l1.997-.115c-.092-.484-.421-.885-.831-1.129l-.898 1.641Zm-.268-.397c-.061-.322.102-.48.145-.512l1.349 1.625c.353-.258.604-.7.503-1.228l-1.997.115Zm.07-.45c-.094.088-.17.099-.58.268l.987 1.827c.179-.074.706-.236 1.092-.593l-1.498-1.503Zm-.436.222a3.287 3.287 0 0 0-.728.239l1.09 1.78c.063-.03.143-.056.336-.1l-.698-1.919Zm-.677.216c-.043.017-.25.096-.414.273a.994.994 0 0 0-.233.88l1.997-.116a.78.78 0 0 1-.01.336.72.72 0 0 1-.17.316.644.644 0 0 1-.154.123c-.027.015-.043.02-.029.015l-.987-1.827Zm-.647 1.153.013.069 1.997-.116-.013-.069-1.997.116Zm.013.069c.143.748.88 1.081 1.387 1.052l-.375-1.965c.297-.017.869.187.985.797l-1.997.116Zm1.387 1.052.07-.004-.375-1.965-.07.004.375 1.965Zm.231-.027c.594-.136 1.376-.309 2.042-.87l-1.44-1.554c-.308.26-.675.362-1.3.505l.699 1.919Zm2.055-.881c.404-.356.64-.896.519-1.534l-1.997.116a.187.187 0 0 1 .007-.096c.01-.027.02-.03.005-.018l1.466 1.531Zm.519-1.534c-.079-.41-.316-.821-.65-1.139l-1.326 1.318-.002-.003a.266.266 0 0 1-.02-.06l1.998-.116Zm-.666-1.153a3.39 3.39 0 0 0-1.182-.696l-.442 1.852c.12.04.25.116.33.19l1.294-1.346Zm-1.206-.703c-.488-.153-.994-.21-1.32-.254l-.025 1.95c.398.053.688.088.951.17l.394-1.866Zm-1.308-.252c-2.317-.338-4.618-.31-6.797-.253l.31 1.967c2.18-.057 4.32-.077 6.438.232l.05-1.946Zm-6.83-.252-1.152.067.374 1.964 1.153-.067-.374-1.964Zm-1.152.067c-1.174.068-2.34.17-3.533.31l.491 1.955a58.137 58.137 0 0 1 3.416-.3l-.374-1.965Zm-3.53.31c-.652.074-1.327.185-1.943.29l.593 1.94a33.803 33.803 0 0 1 1.835-.275l-.485-1.955Zm-1.926.288c-1.121.171-2.2.376-3.27.615l.688 1.921c1.03-.23 2.065-.426 3.141-.59l-.56-1.946Zm-3.114.593a1.333 1.333 0 0 0-.326.06 3.146 3.146 0 0 0-.03.009l-.008.002.03-.007a.805.805 0 0 1 .131-.017l.375 1.964a1.056 1.056 0 0 0 .276-.051l.025-.007c.013-.004.012-.003.003-.002a.555.555 0 0 1-.1.014l-.376-1.965Zm-.203.047a.577.577 0 0 1 .17.02.944.944 0 0 1 .611.51c.025.058.029.089.025.069l-1.997.115c.03.157.115.556.473.88.405.365.862.384 1.093.37l-.375-1.964Zm.806.598-.02-.103-1.996.116.02.103 1.996-.116Zm-.005.01c-.031-.43-.048-.872-.065-1.335-.017-.456-.034-.933-.069-1.403l-2.026-.11c.031.43.048.872.065 1.335.017.456.034.933.069 1.403l2.026.11Zm-.131-2.657a.581.581 0 0 1-.36.518l-.01.004h-.004l-.76-1.903c-.153.04-.397.125-.596.332-.22.23-.298.514-.302.777l2.032.272Zm-.468.542c.257-.04.679-.15.93-.545.238-.377.181-.8.138-1.026l-1.996.115c.008.044.002.032.004-.011a.541.541 0 0 1 .085-.255c.142-.225.354-.235.267-.221l.572 1.943Zm1.068-1.571-.02-.103-1.996.115.02.104 1.996-.116Zm-.02-.103c-.141-.743-.612-1.246-1.106-1.587l-1.033 1.554a.57.57 0 0 1 .135.119c0 .001.004.01.008.03l1.997-.116Zm-1.049-1.545a2.076 2.076 0 0 0-1.4-.454l.374 1.965c-.007 0-.027 0-.056-.009a.209.209 0 0 1-.065-.032l1.147-1.47Zm-1.4-.454c-.781.046-1.24.587-1.375 1.226l1.993.622c.009-.044.014-.016-.034.03a.315.315 0 0 1-.095.06.355.355 0 0 1-.115.027l-.375-1.965Zm-1.38 1.246c-.068.367-.08.759-.058 1.098l2.027.129a2.753 2.753 0 0 1 .033-.645l-2.001-.582Zm-.06 1.085c.062 1.245.117 2.457.172 3.67l2.03.164c-.056-1.213-.11-2.429-.172-3.679l-2.03-.155Zm.174 3.701c.007.097-.02-.01.063-.15a.517.517 0 0 1 .182-.18c.064-.038.111-.046.115-.047l.593 1.94c.328-.056.687-.212.903-.575.19-.32.186-.671.17-.886l-2.026-.102Zm.163-.32-.032.013a5.75 5.75 0 0 1-.046.018l.018-.005a.447.447 0 0 1 .065-.008l.375 1.964c.296-.017.54-.128.607-.155l-.987-1.828Zm-.189.049c-3.383.902-6.582 2.08-9.636 3.678l1.133 1.759c2.92-1.529 5.992-2.661 9.266-3.535l-.763-1.902Zm-9.643 3.681c-.803.43-1.631.888-2.402 1.503l1.405 1.582c.64-.51 1.345-.905 2.144-1.333l-1.147-1.752Zm-2.432 1.528c-.227.2-.6.542-.71 1.126l2.002.582c-.002.009-.006.008.01-.015.024-.032.067-.077.163-.161l-1.465-1.532Zm-.715 1.161c-.01.072-.058.336-.003.627l1.997-.115a.45.45 0 0 1 .008.064v.02a.466.466 0 0 1 .006-.05l.005-.034-2.013-.512Zm-.003.627c.06.314.2.606.418.857.208.239.447.395.644.5l.795-1.7c-.039-.02-.005-.009.045.048a.469.469 0 0 1 .095.18l-1.997.115Zm1.18 1.411c.21.084.482.147.794.129l-.375-1.965a.339.339 0 0 1 .14.027l-.559 1.81Zm.794.129c.354-.02.724-.125 1.026-.293.244-.135.73-.473.752-1.11l-2.03-.313a.496.496 0 0 1 .104-.305c.025-.029.034-.028.004-.01a.566.566 0 0 1-.23.066l.374 1.965Zm1.775-1.356c.002-.026.005-.02-.005.005a.265.265 0 0 1-.055.087c-.023.025-.04.034-.033.03a1.867 1.867 0 0 1 .09-.044l-1.053-1.8c-.135.063-.39.18-.597.407-.23.252-.342.564-.372.91l2.025.405Zm.084.03c.474-.287.893-.559 1.33-.772l-1.089-1.781c-.531.26-1.056.598-1.469.848l1.228 1.706Zm1.347-.78c2.61-1.34 5.428-2.393 8.333-3.32l-.847-1.877c-2.957.942-5.877 2.03-8.608 3.431l1.122 1.766Zm8.376-3.334c.182-.068.288-.11.378-.14a.936.936 0 0 1 .069-.022c.008-.002-.015.005-.06.007l-.375-1.964a1.958 1.958 0 0 0-.515.112c-.125.042-.282.103-.43.158l.933 1.849Zm.387-.155a.925.925 0 0 1-.447-.093 1.041 1.041 0 0 1-.413-.351.711.711 0 0 1-.092-.181c-.005-.013-.002-.007.007.035l1.996-.116c-.021-.11-.074-.4-.255-.666a1.367 1.367 0 0 0-.544-.468 1.283 1.283 0 0 0-.627-.124l.375 1.964Zm-.946-.59c.019.096.046.244.054.412l2.03.164c-.015-.317-.066-.582-.087-.692l-1.996.116Zm.06.48c.213 1.86.425 3.725.84 5.898l1.996-.115c-.399-2.09-.603-3.886-.818-5.754l-2.019-.03Z" fill="#000"/><rect x="-.391" y="-.139" width="52.14" height="1.626" rx=".813" transform="matrix(.96885 -.24765 .59413 .80437 24.57 49.059)" fill="#111" stroke="#000" stroke-width=".5"/></svg>